<svg width="48" height="48" viewBox="0 0 48 48" fill="none" xmlns="http://www.w3.org/2000/svg">
<path fill-rule="evenodd" clip-rule="evenodd" d="M7.36914 10.4678V38.1332H4.36914V10.4678H7.36914Z" fill="#1B344B"/>
<path fill-rule="evenodd" clip-rule="evenodd" d="M5.8682 4.5C4.56028 4.5 3.5 5.56028 3.5 6.8682C3.5 8.17613 4.56028 9.23641 5.8682 9.23641C7.17613 9.23641 8.23641 8.17613 8.23641 6.8682C8.23641 5.56028 7.17613 4.5 5.8682 4.5ZM0.5 6.8682C0.5 3.90343 2.90343 1.5 5.8682 1.5C8.83298 1.5 11.2364 3.90343 11.2364 6.8682C11.2364 9.83298 8.83298 12.2364 5.8682 12.2364C2.90343 12.2364 0.5 9.83298 0.5 6.8682Z" fill="#1B344B"/>
<path fill-rule="evenodd" clip-rule="evenodd" d="M5.8682 38.7637C4.56028 38.7637 3.5 39.824 3.5 41.1319C3.5 42.4398 4.56028 43.5001 5.8682 43.5001C7.17613 43.5001 8.23641 42.4398 8.23641 41.1319C8.23641 39.824 7.17613 38.7637 5.8682 38.7637ZM0.5 41.1319C0.5 38.1671 2.90343 35.7637 5.8682 35.7637C8.83298 35.7637 11.2364 38.1671 11.2364 41.1319C11.2364 44.0967 8.83298 46.5001 5.8682 46.5001C2.90343 46.5001 0.5 44.0967 0.5 41.1319Z" fill="#1B344B"/>
<path fill-rule="evenodd" clip-rule="evenodd" d="M43.29 18.792V38.133H40.29V18.792H43.29Z" fill="#1B344B"/>
<path fill-rule="evenodd" clip-rule="evenodd" d="M41.7911 38.7637C40.4831 38.7637 39.4229 39.824 39.4229 41.1319C39.4229 42.4398 40.4831 43.5001 41.7911 43.5001C43.099 43.5001 44.1593 42.4398 44.1593 41.1319C44.1593 39.824 43.099 38.7637 41.7911 38.7637ZM36.4229 41.1319C36.4229 38.1671 38.8263 35.7637 41.7911 35.7637C44.7558 35.7637 47.1593 38.1671 47.1593 41.1319C47.1593 44.0967 44.7558 46.5001 41.7911 46.5001C38.8263 46.5001 36.4229 44.0967 36.4229 41.1319Z" fill="#1B344B"/>
<path fill-rule="evenodd" clip-rule="evenodd" d="M16.2422 5.36914H29.867C37.281 5.36914 43.2908 11.3789 43.2908 18.793H40.2908C40.2908 13.0358 35.6242 8.36914 29.867 8.36914H16.2422V5.36914Z" fill="#1B344B"/>
<path fill-rule="evenodd" clip-rule="evenodd" d="M20.5744 1.93934C21.1602 2.52513 21.1602 3.47487 20.5744 4.06066L17.7668 6.8682L20.5744 9.67575C21.1602 10.2615 21.1602 11.2113 20.5744 11.7971C19.9886 12.3829 19.0388 12.3829 18.4531 11.7971L14.5848 7.92886C13.9991 7.34308 13.9991 6.39333 14.5848 5.80754L18.4531 1.93934C19.0388 1.35355 19.9886 1.35355 20.5744 1.93934Z" fill="#1B344B"/>
</svg>
