<svg width="38" height="50" viewBox="0 0 38 50" fill="none" xmlns="http://www.w3.org/2000/svg">
    <g clip-path="url(#clip0)">
        <path fill-rule="evenodd" clip-rule="evenodd" d="M34.7998 35.25V15.625C34.7048 13.1875 33.7241 11.0313 31.826 9.1875C29.9278 7.34375 27.7766 6.34375 25.309 6.25H22.1454V0L12.6547 9.375L22.1454 18.75V12.5H25.309C26.1632 12.5625 26.8275 12.8437 27.4919 13.4687C28.1562 14.0937 28.441 14.7812 28.4726 15.625V35.25C27.2682 35.9353 26.3267 36.9945 25.7947 38.2629C25.2627 39.5313 25.1698 40.9378 25.5307 42.2637C25.8915 43.5896 26.6857 44.7606 27.7899 45.5945C28.8941 46.4285 30.2463 46.8786 31.6362 46.875C33.0261 46.8786 34.3783 46.4285 35.4824 45.5945C36.5866 44.7606 37.3809 43.5896 37.7417 42.2637C38.1025 40.9378 38.0097 39.5313 37.4777 38.2629C36.9456 36.9945 36.0042 35.9353 34.7998 35.25V35.25ZM31.6362 44.375C29.5482 44.375 27.8399 42.6562 27.8399 40.625C27.8399 38.5938 29.5798 36.875 31.6362 36.875C33.6925 36.875 35.4325 38.5938 35.4325 40.625C35.4325 42.6562 33.6925 44.375 31.6362 44.375ZM12.6547 9.375C12.6547 5.90625 9.83911 3.125 6.32754 3.125C4.93761 3.12137 3.58543 3.57153 2.48127 4.40546C1.3771 5.2394 0.58285 6.41037 0.222023 7.73628C-0.138804 9.06218 -0.0459797 10.4687 0.486059 11.7371C1.0181 13.0055 1.95953 14.0647 3.16396 14.75V35.25C1.95953 35.9353 1.0181 36.9945 0.486059 38.2629C-0.0459797 39.5313 -0.138804 40.9378 0.222023 42.2637C0.58285 43.5896 1.3771 44.7606 2.48127 45.5945C3.58543 46.4285 4.93761 46.8786 6.32754 46.875C7.71746 46.8786 9.06964 46.4285 10.1738 45.5945C11.278 44.7606 12.0722 43.5896 12.433 42.2637C12.7939 40.9378 12.7011 39.5313 12.169 38.2629C11.637 36.9945 10.6955 35.9353 9.49112 35.25V14.75C11.3576 13.6875 12.6547 11.6875 12.6547 9.375ZM10.1238 40.625C10.1238 42.6875 8.38386 44.375 6.32754 44.375C4.27121 44.375 2.53124 42.6562 2.53124 40.625C2.53124 38.5938 4.27121 36.875 6.32754 36.875C8.38386 36.875 10.1238 38.5938 10.1238 40.625ZM6.32754 13.125C4.23957 13.125 2.53124 11.4062 2.53124 9.375C2.53124 7.34375 4.27121 5.625 6.32754 5.625C8.38386 5.625 10.1238 7.34375 10.1238 9.375C10.1238 11.4062 8.38386 13.125 6.32754 13.125Z" fill="#1B344B"/>
    </g>
    <defs>
        <clipPath id="clip0">
            <rect width="37.963" height="50" fill="white"/>
        </clipPath>
    </defs>
</svg>
